# xmcd
#
# Track frame offsets: 
#        150
#        15081
#        35918
#        54169
#        70877
#        86978
#        111428
#        135961
#        155044
#        173777
#        192070
#        205550
#
# Disc length: 3202 seconds
#
# Revision: 0
# Processed by: cddbd v1.5.2PL0 Copyright (c) Steve Scherf et al.
# Submitted via: ExactAudioCopyFreeDBPlugin 1.0
#
DISCID=990c800c
DTITLE=Ginger - 100%
DYEAR=2012
DGENRE=Hard Rock
TTITLE0=Forget About It
TTITLE1=Internal Radio
TTITLE2=Lover It'll All Work Out
TTITLE3=You're The One, You're The One, Yeah, I Know You're The One, Y
TTITLE3=ou're The One (Yeah, I Know You're The One)
TTITLE4=It Appears That The Party Is Over
TTITLE5=Taste Aversion
TTITLE6=Another Spinning Fucking Rainbow
TTITLE7=Just Another Song About Someone
TTITLE8=Westward Ho! (A New Reputation)
TTITLE9=Beautifully, Blissfully Unsettled
TTITLE10=We've Been Expecting You
TTITLE11=Time
EXTD=
EXTT0=
EXTT1=
EXTT2=
EXTT3=
EXTT4=
EXTT5=
EXTT6=
EXTT7=
EXTT8=
EXTT9=
EXTT10=
EXTT11=
PLAYORDER=
